REM GENRE Anime
REM DATE 2013
REM DISCID 45108206
REM COMMENT "ExactAudioCopy v1.0b3"
PERFORMER "Black Raison d`etre"
TITLE "中二病でも恋がしたい！ ～闇の炎に抱かれて聞け～ Vol.4 DISC 2"
FILE "chu2_31.mp3" WAVE
  TRACK 01 AUDIO
    TITLE "第31病 2013年4月29日配信"
    INDEX 01 00:00:00
FILE "chu2_32.mp3" WAVE
  TRACK 02 AUDIO
    TITLE "第32病 2013年5月6日配信"
    INDEX 01 00:00:00
FILE "chu2_33.mp3" WAVE
  TRACK 03 AUDIO
    TITLE "第33病 2013年5月13日配信"
    INDEX 01 00:00:00
FILE "chu2_34.mp3" WAVE
  TRACK 04 AUDIO
    TITLE "第34病 2013年5月20日配信"
    INDEX 01 00:00:00
FILE "chu2_35.mp3" WAVE
  TRACK 05 AUDIO
    TITLE "第35病 2013年5月27日配信"
    INDEX 01 00:00:00
FILE "chu2_36.mp3" WAVE
  TRACK 06 AUDIO
    TITLE "第36病 2013年6月3日配信"
    INDEX 01 00:00:00
FILE "chu2_37.mp3" WAVE
  TRACK 07 AUDIO
    TITLE "第37病 2013年6月10日配信"
    INDEX 01 00:00:00
FILE "chu2_38.mp3" WAVE
  TRACK 08 AUDIO
    TITLE "第38病 2013年6月17日配信"
    INDEX 01 00:00:00
FILE "chu2_39.mp3" WAVE
  TRACK 09 AUDIO
    TITLE "第39病 2013年6月24日配信"
    INDEX 01 00:00:00
FILE "chu2_40.mp3" WAVE
  TRACK 10 AUDIO
    TITLE "第40病 2013年7月1日配信"
    INDEX 01 00:00:00
